PathFileType	4	(X/Y/Z)	C:\Users\Basilio\Documents\Thesis Gigler\squatting_fais\c3dfiles\041\SLS_pre_back3\markers_experimental.trc
DataRate	CameraRate	NumFrames	NumMarkers	Units	OrigDataRate	OrigDataStartFrame	OrigNumFrames
200.000000	200.000000	4	62	mm	200.000000	745	1490
Frame#	Time	FHD			LBHD			RBHD			C7			T10			CLAV			LSHO			LUUPA			LMUPA			LDUPA			LLEP			LMEP			LRAD			LUL			LRFIN			RSHO			RUPA1			RMUPA			RDUPA			RLEP			RMEP			RRAD			RUL			RUFIN			LASI			RASI			USACR			LSACR			RSACR			LTHI1			LTHI2			LTHI3			LTHI4			LLFC			LMFC			LTIB1			LTIB2			LTIB3			LTIB4			LLMAL			LMMAL			LHEE			LMT1			LMT2			LMT5			RTHI			RTHI2			RTHI3			RTHI4			RLFC			RMFC			RTIB1			RTIB2			RTIB3			RTIB4			RLMAL			RMMAL			RHEE			RMT1			RMT2			RMT5			*61			
		X1	Y1	Z1	X2	Y2	Z2	X3	Y3	Z3	X4	Y4	Z4	X5	Y5	Z5	X6	Y6	Z6	X7	Y7	Z7	X8	Y8	Z8	X9	Y9	Z9	X10	Y10	Z10	X11	Y11	Z11	X12	Y12	Z12	X13	Y13	Z13	X14	Y14	Z14	X15	Y15	Z15	X16	Y16	Z16	X17	Y17	Z17	X18	Y18	Z18	X19	Y19	Z19	X20	Y20	Z20	X21	Y21	Z21	X22	Y22	Z22	X23	Y23	Z23	X24	Y24	Z24	X25	Y25	Z25	X26	Y26	Z26	X27	Y27	Z27	X28	Y28	Z28	X29	Y29	Z29	X30	Y30	Z30	X31	Y31	Z31	X32	Y32	Z32	X33	Y33	Z33	X34	Y34	Z34	X35	Y35	Z35	X36	Y36	Z36	X37	Y37	Z37	X38	Y38	Z38	X39	Y39	Z39	X40	Y40	Z40	X41	Y41	Z41	X42	Y42	Z42	X43	Y43	Z43	X44	Y44	Z44	X45	Y45	Z45	X46	Y46	Z46	X47	Y47	Z47	X48	Y48	Z48	X49	Y49	Z49	X50	Y50	Z50	X51	Y51	Z51	X52	Y52	Z52	X53	Y53	Z53	X54	Y54	Z54	X55	Y55	Z55	X56	Y56	Z56	X57	Y57	Z57	X58	Y58	Z58	X59	Y59	Z59	X60	Y60	Z60	X61	Y61	Z61	X62	Y62	Z62	

746	3.725	-45.54354095458985	1549.404174804688	-1137.143798828125	-231.8552398681641	1482.206298828125	-1190.007202148438	-196.5077362060547	1495.594116210938	-1041.280883789063	-277.0204772949219	1380.3876953125	-1109.30859375	-438.944305419922	1124.112060546875	-1074.345947265625	-148.8604888916016	1276.8056640625	-1116.31689453125	-202.1295623779297	1374.4462890625	-1240.520263671875	-117.3424606323242	1377.353515625	-1380.206909179688	-70.59942626953126	1381.356567382813	-1367.465087890625	-67.74317169189455	1374.2470703125	-1428.719848632813	-29.06440734863282	1369.102783203125	-1453.963745117188	11.85015678405762	1295.748168945313	-1431.0966796875	229.5789947509766	1388.096801757813	-1546.617065429688	191.3323516845703	1395.426147460938	-1609.218383789063	286.8176879882813	1432.052856445313	-1573.694458007813	-187.6690368652344	1388.806274414063	-1003.825866699219	-33.31388854980469	1384.727661132813	-910.3328247070315	-20.96530914306641	1406.190551757813	-954.854431152344	32.96837997436524	1403.105834960938	-928.2488403320315	77.73790740966798	1405.352905273438	-937.5781250000002	92.70567321777345	1322.91259765625	-958.1726074218752	321.7123413085938	1403.51123046875	-1054.763916015625	337.6304321289063	1421.370239257813	-982.7288818359377	400.2120971679689	1423.626342773438	-1079.125366210938	-347.8089294433594	894.6566162109377	-1160.678344726563	-392.1228332519532	884.3840942382815	-941.0613403320315	-503.5790405273439	1027.445922851563	-1070.858520507813	-523.8280029296876	1009.790649414063	-1102.701538085938	-534.9102783203126	1008.048156738281	-1047.900756835938	-392.9311523437501	730.0800170898439	-1232.265380859375	-320.1532592773438	689.2435913085939	-1214.6474609375	-285.3122863769532	717.1696166992189	-1199.79150390625	-314.3430175781251	628.6779174804689	-1200.863159179688	-211.8610992431641	495.7096557617189	-1155.152221679688	-224.3816070556641	491.5120849609376	-1040.043701171875	-237.3564758300782	315.0614929199219	-1080.614624023438	-286.2886962890626	281.0604858398438	-1148.368041992188	-256.2826843261719	269.0794067382813	-1117.455200195313	-288.4526977539063	201.005844116211	-1079.643188476563	-369.1772155761719	126.026725769043	-1129.12451171875	-341.7658386230469	132.2870635986328	-1040.567626953125	-441.9282226562501	109.5495529174805	-1093.856811523438	-240.2819213867188	61.01753234863283	-1048.844360351563	-228.3126678466797	60.1135711669922	-1092.618530273438	-271.8165588378907	47.17345046997071	-1150.406127929688	-594.4182128906251	672.8313598632814	-883.972351074219	-575.7948608398439	609.2675781250001	-877.3031005859377	-544.0240478515626	599.2339477539064	-880.8355712890627	-626.3124389648439	542.5765380859376	-894.2275390625002	-666.2353515625001	448.4354248046876	-891.8811645507815	-665.5298461914064	414.9673156738282	-1004.067687988281	-804.887145996094	359.7342224121094	-896.3118286132815	-902.8831787109377	417.6615295410157	-888.922058105469	-890.7418212890627	372.0817260742188	-886.2037353515627	-928.918884277344	333.7761535644532	-911.161560058594	-1061.651489257813	347.6678161621094	-900.0603637695315	-1027.707397460938	327.0394592285157	-976.3178710937502	-1114.510375976563	390.4559936523439	-952.2115478515627	-1046.353515625	185.6533355712891	-970.9524536132815	-1047.707641601563	177.4720458984375	-918.8016357421877	-1090.709350585938	206.3327941894532	-875.257751464844	-4217.035156250001	853.065612792969	-3944.675048828126	
747	3.73	-45.35457611083985	1549.128540039063	-1136.554931640625	-231.7807617187501	1481.806396484375	-1189.373657226563	-196.3160858154297	1495.110595703125	-1040.704833984375	-276.9203796386719	1380.062622070313	-1108.704711914063	-439.0435485839845	1123.853393554688	-1074.326293945313	-148.7509002685547	1276.443481445313	-1115.942626953125	-201.8238220214844	1374.231079101563	-1240.119018554688	-117.0964584350586	1377.541748046875	-1379.937622070313	-70.39574432373048	1381.4150390625	-1367.231201171875	-67.4645462036133	1374.629150390625	-1428.430053710938	-29.04597473144532	1369.45166015625	-1453.8994140625	11.94381904602051	1295.99560546875	-1431.0966796875	229.2164306640626	1388.59814453125	-1547.163208007813	191.1449432373047	1395.794799804688	-1609.626220703125	286.3204040527344	1432.427001953125	-1574.385620117188	-187.7043762207032	1388.219848632813	-1003.183959960938	-33.41586303710938	1383.892456054688	-909.7092895507815	-21.28637123107911	1405.465698242188	-954.2095336914065	32.90034103393555	1402.458374023438	-927.913269042969	77.61454010009767	1404.544555664063	-937.1624145507815	93.08154296875001	1322.274169921875	-957.9768066406252	321.0723571777344	1403.529541015625	-1054.562866210938	337.4978942871094	1421.109619140625	-982.6382446289065	399.9566650390626	1423.369995117188	-1079.057861328125	-347.9062805175782	894.4786376953127	-1160.758544921875	-392.4396362304689	884.1522216796877	-941.2063598632815	-503.8221740722657	1027.175659179688	-1070.942626953125	-524.1045532226564	1009.567687988281	-1102.837280273438	-535.1054687500001	1007.786193847656	-1048.021728515625	-392.8788452148439	729.9439697265626	-1232.285278320313	-320.1352844238282	689.1312866210939	-1214.529907226563	-285.2943725585938	717.1572875976564	-1199.617919921875	-314.2557067871094	628.6062011718751	-1200.69482421875	-211.7260131835938	495.6348876953126	-1154.693603515625	-224.6296081542969	491.3548889160157	-1039.29052734375	-237.3939666748047	314.9383239746094	-1080.320190429688	-286.5451354980469	281.0780944824219	-1148.1396484375	-256.1908569335938	269.1539001464844	-1117.165405273438	-288.5137634277344	201.0608367919922	-1079.402221679688	-369.1427917480469	126.0076675415039	-1129.038330078125	-341.7632141113282	132.2766418457032	-1040.444946289063	-441.916473388672	109.5151748657227	-1093.8486328125	-240.2796630859376	60.98866271972658	-1048.745483398438	-228.1915588378907	60.31797409057619	-1092.53759765625	-271.5203247070313	47.14888381958009	-1150.239624023438	-594.5968017578126	672.3533325195314	-884.152038574219	-575.7453613281251	608.8375854492189	-877.5444946289065	-543.9454345703126	598.8505859375001	-881.0986938476565	-626.0789794921876	541.9802856445314	-894.585632324219	-665.6901245117189	447.8752746582032	-892.2142333984377	-665.1752929687501	414.4341430664064	-1004.291259765625	-804.696716308594	359.4925842285157	-896.2637939453127	-902.5646972656252	417.7908020019532	-888.9524536132815	-890.5114746093752	372.2459716796876	-886.1951904296877	-928.7373046875002	334.0096435546876	-911.170104980469	-1061.537719726563	348.2619934082032	-899.8179931640627	-1027.592163085938	327.4492187500001	-976.3313598632815	-1114.373779296875	391.3880920410157	-952.1657714843752	-1046.333129882813	185.9811553955078	-970.7847290039065	-1047.68212890625	177.792709350586	-918.6051025390627	-1090.533569335938	206.8355102539063	-875.2680664062502	-4217.003906250001	853.1572265625002	-3944.767822265626	
748	3.735	-45.38193893432618	1548.878295898438	-1136.007202148438	-231.7143249511719	1481.435546875	-1188.793701171875	-196.2078094482422	1494.644653320313	-1040.12890625	-276.7615661621094	1379.698120117188	-1108.173217773438	-439.1191711425782	1123.627319335938	-1074.2802734375	-148.5431823730469	1276.148193359375	-1115.637573242188	-201.5736389160157	1373.987426757813	-1239.726440429688	-117.2155227661133	1377.61083984375	-1379.636108398438	-70.16507720947267	1381.509521484375	-1366.944458007813	-67.14791107177736	1375.186279296875	-1428.180419921875	-29.1053810119629	1369.761840820313	-1453.788818359375	12.04797649383545	1296.199951171875	-1431.108276367188	228.3992614746094	1388.808715820313	-1546.894409179688	190.7426910400391	1396.137451171875	-1609.970581054688	285.9134826660157	1432.893676757813	-1575.1259765625	-187.6586303710938	1387.7939453125	-1002.64892578125	-33.30493927001954	1383.527587890625	-909.2015380859377	-20.78081130981446	1405.049560546875	-953.822448730469	32.98207092285157	1402.004272460938	-927.4263916015627	77.67933654785158	1403.982055664063	-936.6503906250002	93.07907867431642	1321.816650390625	-957.648376464844	321.5129394531251	1402.971801757813	-1054.388061523438	337.6564636230469	1420.7998046875	-982.4617919921877	399.7354736328126	1423.162353515625	-1078.922729492188	-348.0585937500001	894.2636718750002	-1160.827514648438	-392.8368225097657	883.9086914062502	-941.2325439453127	-504.0440368652345	1026.902465820313	-1071.140991210938	-524.3879394531251	1009.372375488281	-1102.99365234375	-535.2778930664064	1007.491638183594	-1048.169921875	-392.8495483398439	729.7635498046876	-1232.263793945313	-320.1413879394532	689.0303955078126	-1214.44580078125	-285.2460937500001	717.0549926757814	-1199.47216796875	-314.2619628906251	628.5540161132814	-1200.504638671875	-211.6488189697266	495.6290283203126	-1154.415283203125	-224.7341613769532	491.2427368164064	-1039.030151367188	-237.5315399169922	314.8544311523438	-1079.874755859375	-286.4324340820313	281.0722045898438	-1147.865356445313	-256.0974426269532	269.1710815429688	-1116.989379882813	-288.5996093750001	201.0305786132813	-1079.132568359375	-369.1625671386719	126.0400009155274	-1128.923950195313	-341.7808532714844	132.2939453125	-1040.335571289063	-441.9042053222657	109.4806900024414	-1093.826782226563	-240.2948303222657	61.01702880859376	-1048.706787109375	-228.2074432373047	60.38718032836915	-1092.515747070313	-271.6590270996094	47.40201950073243	-1150.317626953125	-594.6198120117189	671.8560180664064	-884.5211181640627	-575.7221679687501	608.3776855468751	-877.5738525390627	-543.8953857421876	598.4669189453126	-881.297302246094	-625.9572753906251	541.6194458007814	-894.8254394531252	-665.2914428710939	447.3728942871095	-892.343200683594	-664.8252563476564	413.926483154297	-1004.559753417969	-804.205017089844	359.2727966308594	-896.457702636719	-902.0831298828127	417.9493103027345	-888.9708251953127	-890.2741699218752	372.2981567382813	-886.2566528320315	-928.6148681640627	334.2129211425782	-911.031188964844	-1061.242065429688	348.8576965332032	-899.945007324219	-1027.439331054688	327.8468933105469	-976.2884521484377	-1114.175415039063	391.9569702148439	-952.1994628906252	-1046.515869140625	186.7737426757813	-970.7481079101565	-1047.637939453125	178.329345703125	-918.6489257812502	-1090.444580078125	207.5177612304688	-875.0781250000002	-4216.929687500001	853.0616455078127	-3944.712402343751	
749	3.74	-45.43406295776368	1548.55615234375	-1135.466552734375	-231.6439361572266	1481.054809570313	-1188.181518554688	-196.1118316650391	1494.220092773438	-1039.602294921875	-276.6784362792969	1379.383056640625	-1107.791625976563	-439.1679992675782	1123.375732421875	-1074.2783203125	-148.4812164306641	1275.872192382813	-1115.252319335938	-201.2043151855469	1373.883666992188	-1239.322265625	-117.0868530273438	1377.81787109375	-1379.3447265625	-69.77799224853517	1381.962646484375	-1366.646606445313	-67.5680389404297	1375.763671875	-1428.165161132813	-29.00054168701173	1370.05322265625	-1453.705444335938	12.30087375640869	1296.4365234375	-1431.151977539063	228.2680816650391	1389.2421875	-1547.320434570313	189.8379669189453	1396.671142578125	-1610.458984375	285.5605163574219	1433.309326171875	-1575.781982421875	-187.5660095214844	1387.201904296875	-1002.294067382813	-32.85002136230469	1382.955322265625	-908.7022094726565	-20.57429885864258	1404.648681640625	-953.246765136719	33.32774734497071	1401.500244140625	-926.824401855469	78.13399505615236	1403.653076171875	-936.250915527344	92.9429397583008	1321.17431640625	-957.0858154296877	321.4056396484376	1402.802124023438	-1054.112915039063	337.6847229003907	1420.46630859375	-982.2039184570315	399.5887145996095	1422.936279296875	-1078.729858398438	-348.1492004394532	894.0225219726565	-1160.914916992188	-393.091278076172	883.680847167969	-941.4166259765627	-504.2843322753907	1026.711303710938	-1071.2421875	-524.5178222656251	1009.1201171875	-1103.172119140625	-535.4100952148439	1007.152526855469	-1048.099853515625	-392.8973083496095	729.5894775390626	-1232.2802734375	-320.0479736328126	688.9538574218751	-1214.351318359375	-285.2354736328126	716.9677734375001	-1199.34716796875	-314.2330017089844	628.4479980468751	-1200.402587890625	-211.5248413085938	495.6014709472657	-1154.061157226563	-224.9765167236329	491.3265380859376	-1038.6923828125	-237.5660552978516	314.8472900390626	-1079.52734375	-286.2290954589844	281.1286010742188	-1147.548706054688	-255.8299560546876	269.3970031738282	-1116.525024414063	-288.7254028320313	201.0319976806641	-1078.908569335938	-369.1369628906251	126.04248046875	-1128.865478515625	-341.7813720703126	132.2400512695313	-1040.254638671875	-441.957244873047	109.4805679321289	-1093.814331054688	-240.3211364746094	61.08685684204103	-1048.699584960938	-228.1825561523438	60.42471313476564	-1092.498413085938	-271.5991821289063	47.51609420776368	-1150.27978515625	-594.6099243164064	671.4078979492189	-884.860290527344	-575.4879150390626	608.0076293945314	-878.0463867187502	-543.8454589843751	597.9909057617189	-881.4868164062502	-625.9098510742189	541.0393066406251	-895.0340576171877	-664.9537353515626	446.8645629882814	-892.196716308594	-664.5014038085939	413.4737854003907	-1004.86181640625	-804.0342407226565	359.1762695312501	-896.361022949219	-901.756530761719	418.0133361816407	-889.0249023437502	-889.9375000000002	372.2924804687501	-886.2634277343752	-928.4787597656252	334.3850097656251	-911.0466918945315	-1060.956298828125	349.3223876953126	-899.8750610351565	-1027.253784179688	328.2064819335938	-976.2024536132815	-1113.93408203125	392.4598999023439	-952.0672607421877	-1046.588256835938	187.4658660888672	-970.8945922851565	-1047.520141601563	178.8064727783203	-918.8211669921877	-1090.2041015625	207.9936981201172	-874.8742675781252	-4216.672851562501	853.1190185546877	-3944.668945312501	
